<svg xmlns="http://www.w3.org/2000/svg" version="1.1" xmlns:xlink="http://www.w3.org/1999/xlink" xmlns:svgjs="http://svgjs.dev/svgjs" width="2000" height="1252" viewBox="0 0 2000 1252"><g transform="matrix(1,0,0,1,-1.2121212121212466,-2.01935483870966)"><svg viewBox="0 0 396 248" data-background-color="#ffffff" preserveAspectRatio="xMidYMid meet" height="1252" width="2000" xmlns="http://www.w3.org/2000/svg" xmlns:xlink="http://www.w3.org/1999/xlink"><g id="tight-bounds" transform="matrix(1,0,0,1,0.2400000000000091,0.4000000000000057)"><svg viewBox="0 0 395.52 247.2" height="247.2" width="395.52"><g><svg></svg></g><g><svg viewBox="0 0 395.52 247.2" height="247.2" width="395.52"><g transform="matrix(1,0,0,1,127.55723456790123,47.215199999999996)"><svg viewBox="0 0 140.40553086419752 152.7696" height="152.7696" width="140.40553086419752"><g><svg viewBox="0 0 140.40553086419752 152.7696" height="152.7696" width="140.40553086419752"><g><svg viewBox="0 0 140.40553086419752 152.7696" height="152.7696" width="140.40553086419752"><g><svg viewBox="0 0 140.40553086419752 152.7696" height="152.7696" width="140.40553086419752"><g id="textblocktransform"><svg viewBox="0 0 140.40553086419752 152.7696" height="152.7696" width="140.40553086419752" id="textblock"><g><svg viewBox="0 0 140.40553086419752 152.7696" height="152.7696" width="140.40553086419752"><g transform="matrix(1,0,0,1,0,0)"><svg width="140.40553086419752" viewBox="2.6 -36.45 33.5 36.45" height="152.7696" data-palette-color="#0e5ddd"><path d="M17.45 0L2.6 0 2.6-1.8 7.8-2.35Q7.95-7.1 7.95-16.85L7.95-16.85 7.95-19.6Q7.95-29.35 7.8-34.15L7.8-34.15 2.6-34.7 2.6-36.45 17.45-36.45 17.45-34.7 12.1-34.1Q12-29.4 12-19.6L12-19.6 12-15.4 27.25-34 22.6-34.7 22.6-36.45 35.05-36.45 35.05-34.7 30-34 20.4-22.45 31.7-2.3 36.1-1.8 36.1 0 22.5 0 22.5-1.8 27.3-2.3 17.9-19.45 12-12.35Q12-6 12.1-2.35L12.1-2.35 17.45-1.8 17.45 0Z" opacity="1" transform="matrix(1,0,0,1,0,0)" fill="#0e5ddd" class="wordmark-text-0" data-fill-palette-color="primary" id="text-0"></path></svg></g></svg></g></svg></g></svg></g></svg></g></svg></g></svg></g><path d="M85.661 41.215L85.661 0 332.861 0 332.861 247.2 85.661 247.2 85.661 205.985 99.438 205.985 99.438 233.423 319.085 233.423 319.085 13.777 99.438 13.777 99.438 41.215Z" fill="#0e5ddd" stroke="transparent" data-fill-palette-color="tertiary"></path></svg></g><defs></defs></svg><rect width="395.52" height="247.2" fill="none" stroke="none" visibility="hidden"></rect></g></svg></g></svg>